<svg xmlns="http://www.w3.org/2000/svg" viewBox="0 0 960 540" font-family="-apple-system,BlinkMacSystemFont,'SF Pro Display','Segoe UI',Roboto,system-ui,sans-serif">
  <defs>
    <linearGradient id="blend" x1="0" y1="0" x2="1" y2="1">
      <stop offset="0" stop-color="#FFB547"/>
      <stop offset="1" stop-color="#3DD9EB"/>
    </linearGradient>
    <linearGradient id="blendSoft" x1="0" y1="0" x2="1" y2="0">
      <stop offset="0" stop-color="#FFB547" stop-opacity="0.35"/>
      <stop offset="1" stop-color="#3DD9EB" stop-opacity="0.25"/>
    </linearGradient>
    <radialGradient id="padBg" cx="0.5" cy="0.5" r="0.7">
      <stop offset="0" stop-color="#111319"/>
      <stop offset="1" stop-color="#0A0B0E"/>
    </radialGradient>
  </defs>

  <!-- Window frame -->
  <rect x="0" y="0" width="960" height="540" rx="14" fill="#0A0B0E" stroke="rgba(255,255,255,0.10)"/>
  <!-- Title bar -->
  <rect x="0" y="0" width="960" height="34" rx="14" fill="#1a1c22"/>
  <rect x="0" y="20" width="960" height="14" fill="#1a1c22"/>
  <line x1="0" y1="34" x2="960" y2="34" stroke="rgba(255,255,255,0.06)"/>
  <circle cx="18" cy="17" r="5.5" fill="#ff5f57"/>
  <circle cx="36" cy="17" r="5.5" fill="#febc2e"/>
  <circle cx="54" cy="17" r="5.5" fill="#28c840"/>
  <text x="80" y="21" font-size="11" fill="#5A5D65" font-family="ui-monospace,'SF Mono',Menlo,monospace">Aevum — live set · session 03</text>

  <!-- Body grid: sidebar | main | right -->
  <!-- Sidebar -->
  <rect x="0" y="34" width="200" height="506" fill="#0A0B0E" stroke="rgba(255,255,255,0.06)"/>
  <text x="16" y="58" font-size="9" fill="#5A5D65" font-family="ui-monospace,monospace" letter-spacing="1.5">LIBRARY</text>
  <g font-size="12" fill="#8B8E96">
    <rect x="8" y="68" width="184" height="24" rx="5" fill="rgba(255,181,71,0.10)"/>
    <circle cx="20" cy="80" r="3" fill="#FFB547"/>
    <text x="32" y="84" fill="#E8E9ED">disco funk 124</text>

    <circle cx="20" cy="108" r="3" fill="#5A5D65"/>
    <text x="32" y="112">ambient pad</text>
    <circle cx="20" cy="132" r="3" fill="#5A5D65"/>
    <text x="32" y="136">breaks 138</text>
    <circle cx="20" cy="156" r="3" fill="#5A5D65"/>
    <text x="32" y="160">dub echo</text>
    <circle cx="20" cy="180" r="3" fill="#5A5D65"/>
    <text x="32" y="184">boogie 110</text>
    <circle cx="20" cy="204" r="3" fill="#5A5D65"/>
    <text x="32" y="208">drone C</text>
  </g>
  <text x="16" y="248" font-size="9" fill="#5A5D65" font-family="ui-monospace,monospace" letter-spacing="1.5">SETLIST</text>
  <g font-size="12" fill="#8B8E96">
    <circle cx="20" cy="268" r="3" fill="#5A5D65"/>
    <text x="32" y="272">1 → 2 → 4</text>
    <circle cx="20" cy="292" r="3" fill="#5A5D65"/>
    <text x="32" y="296">contrast mode</text>
  </g>
  <text x="16" y="520" font-size="9" fill="#5A5D65" font-family="ui-monospace,monospace" letter-spacing="1.5">SESSIONS</text>

  <!-- Main area: clip grid + scene strip -->
  <g transform="translate(216,50)">
    <!-- Clip grid 8x4 -->
    <g>
      <!-- row 1 -->
      <rect x="0" y="0" width="56" height="28" rx="5" fill="url(#blendSoft)" stroke="rgba(255,181,71,0.5)"/>
      <circle cx="50" cy="6" r="2.5" fill="#FFB547"/>
      <rect x="64" y="0" width="56" height="28" rx="5" fill="#1C1F26" stroke="rgba(255,255,255,0.06)"/>
      <rect x="128" y="0" width="56" height="28" rx="5" fill="url(#blendSoft)" stroke="rgba(255,181,71,0.5)"/>
      <circle cx="178" cy="6" r="2.5" fill="#FFB547"/>
      <rect x="192" y="0" width="56" height="28" rx="5" fill="#1C1F26" stroke="rgba(255,255,255,0.06)"/>
      <rect x="256" y="0" width="56" height="28" rx="5" fill="#1C1F26" stroke="rgba(255,255,255,0.06)"/>
      <rect x="320" y="0" width="56" height="28" rx="5" fill="url(#blendSoft)" stroke="rgba(255,181,71,0.5)"/>
      <circle cx="370" cy="6" r="2.5" fill="#FFB547"/>
      <rect x="384" y="0" width="56" height="28" rx="5" fill="#1C1F26" stroke="rgba(255,255,255,0.06)"/>
      <rect x="448" y="0" width="56" height="28" rx="5" fill="#1C1F26" stroke="rgba(255,255,255,0.06)"/>
      <!-- row 2 -->
      <rect x="0" y="36" width="56" height="28" rx="5" fill="#1C1F26" stroke="rgba(255,255,255,0.06)"/>
      <rect x="64" y="36" width="56" height="28" rx="5" fill="url(#blendSoft)" stroke="rgba(255,181,71,0.5)"/>
      <circle cx="114" cy="42" r="2.5" fill="#FFB547"/>
      <rect x="128" y="36" width="56" height="28" rx="5" fill="#1C1F26" stroke="rgba(255,255,255,0.06)"/>
      <rect x="192" y="36" width="56" height="28" rx="5" fill="url(#blendSoft)" stroke="rgba(255,181,71,0.5)"/>
      <circle cx="242" cy="42" r="2.5" fill="#FFB547"/>
      <rect x="256" y="36" width="56" height="28" rx="5" fill="#1C1F26" stroke="rgba(255,255,255,0.06)"/>
      <rect x="320" y="36" width="56" height="28" rx="5" fill="#1C1F26" stroke="rgba(255,255,255,0.06)"/>
      <rect x="384" y="36" width="56" height="28" rx="5" fill="url(#blendSoft)" stroke="rgba(255,181,71,0.5)"/>
      <circle cx="434" cy="42" r="2.5" fill="#FFB547"/>
      <rect x="448" y="36" width="56" height="28" rx="5" fill="#1C1F26" stroke="rgba(255,255,255,0.06)"/>
      <!-- row 3 -->
      <rect x="0" y="72" width="56" height="28" rx="5" fill="url(#blendSoft)" stroke="rgba(255,181,71,0.5)"/>
      <circle cx="50" cy="78" r="2.5" fill="#FFB547"/>
      <rect x="64" y="72" width="56" height="28" rx="5" fill="#1C1F26" stroke="rgba(255,255,255,0.06)"/>
      <rect x="128" y="72" width="56" height="28" rx="5" fill="#1C1F26" stroke="rgba(255,255,255,0.06)"/>
      <rect x="192" y="72" width="56" height="28" rx="5" fill="url(#blendSoft)" stroke="rgba(255,181,71,0.5)"/>
      <circle cx="242" cy="78" r="2.5" fill="#FFB547"/>
      <rect x="256" y="72" width="56" height="28" rx="5" fill="#1C1F26" stroke="rgba(255,255,255,0.06)"/>
      <rect x="320" y="72" width="56" height="28" rx="5" fill="#1C1F26" stroke="rgba(255,255,255,0.06)"/>
      <rect x="384" y="72" width="56" height="28" rx="5" fill="#1C1F26" stroke="rgba(255,255,255,0.06)"/>
      <rect x="448" y="72" width="56" height="28" rx="5" fill="url(#blendSoft)" stroke="rgba(255,181,71,0.5)"/>
      <circle cx="498" cy="78" r="2.5" fill="#FFB547"/>
      <!-- row 4 -->
      <rect x="0" y="108" width="56" height="28" rx="5" fill="#1C1F26" stroke="rgba(255,255,255,0.06)"/>
      <rect x="64" y="108" width="56" height="28" rx="5" fill="#1C1F26" stroke="rgba(255,255,255,0.06)"/>
      <rect x="128" y="108" width="56" height="28" rx="5" fill="url(#blendSoft)" stroke="rgba(255,181,71,0.5)"/>
      <circle cx="178" cy="114" r="2.5" fill="#FFB547"/>
      <rect x="192" y="108" width="56" height="28" rx="5" fill="#1C1F26" stroke="rgba(255,255,255,0.06)"/>
      <rect x="256" y="108" width="56" height="28" rx="5" fill="url(#blendSoft)" stroke="rgba(255,181,71,0.5)"/>
      <circle cx="306" cy="114" r="2.5" fill="#FFB547"/>
      <rect x="320" y="108" width="56" height="28" rx="5" fill="#1C1F26" stroke="rgba(255,255,255,0.06)"/>
      <rect x="384" y="108" width="56" height="28" rx="5" fill="#1C1F26" stroke="rgba(255,255,255,0.06)"/>
      <rect x="448" y="108" width="56" height="28" rx="5" fill="#1C1F26" stroke="rgba(255,255,255,0.06)"/>
    </g>

    <!-- Scene strip -->
    <g transform="translate(0,160)">
      <rect x="0" y="0" width="78" height="22" rx="5" fill="#1C1F26" stroke="rgba(255,255,255,0.06)"/>
      <rect x="84" y="0" width="78" height="22" rx="5" fill="rgba(61,217,235,0.15)" stroke="rgba(61,217,235,0.4)"/>
      <rect x="168" y="0" width="78" height="22" rx="5" fill="#1C1F26" stroke="rgba(255,255,255,0.06)"/>
      <rect x="252" y="0" width="78" height="22" rx="5" fill="#1C1F26" stroke="rgba(255,255,255,0.06)"/>
      <rect x="336" y="0" width="78" height="22" rx="5" fill="#1C1F26" stroke="rgba(255,255,255,0.06)"/>
      <rect x="420" y="0" width="78" height="22" rx="5" fill="#1C1F26" stroke="rgba(255,255,255,0.06)"/>
    </g>

    <!-- Transport bar -->
    <g transform="translate(0,210)">
      <rect x="0" y="0" width="504" height="44" rx="10" fill="#13151A" stroke="rgba(255,255,255,0.06)"/>
      <circle cx="24" cy="22" r="11" fill="#FFB547"/>
      <path d="M20 17 L29 22 L20 27 Z" fill="#060709"/>
      <text x="46" y="26" font-size="12" fill="#E8E9ED" font-family="ui-monospace,monospace">02:14</text>
      <rect x="100" y="18" width="120" height="8" rx="4" fill="#1C1F26"/>
      <rect x="100" y="18" width="48" height="8" rx="4" fill="url(#blend)"/>
      <text x="232" y="26" font-size="10" fill="#5A5D65" font-family="ui-monospace,monospace">CFG 1.8</text>
      <text x="300" y="26" font-size="10" fill="#5A5D65" font-family="ui-monospace,monospace">T 0.95</text>
      <text x="360" y="26" font-size="10" fill="#5A5D65" font-family="ui-monospace,monospace">TOP-K 180</text>
      <circle cx="470" cy="22" r="4" fill="#4ADE80"/>
      <text x="442" y="26" font-size="9" fill="#4ADE80" font-family="ui-monospace,monospace" text-anchor="end">RTF 0.74</text>
    </g>
  </g>

  <!-- Right panel: prompt surface + params -->
  <rect x="744" y="34" width="216" height="506" fill="#0A0B0E" stroke="rgba(255,255,255,0.06)"/>
  <text x="760" y="58" font-size="9" fill="#5A5D65" font-family="ui-monospace,monospace" letter-spacing="1.5">PROMPT SURFACE</text>

  <!-- Mini morph pad -->
  <g transform="translate(760,70)">
    <rect x="0" y="0" width="184" height="184" rx="10" fill="url(#padBg)" stroke="rgba(255,255,255,0.06)"/>
    <!-- grid -->
    <g stroke="rgba(255,255,255,0.05)">
      <line x1="36.8" y1="0" x2="36.8" y2="184"/>
      <line x1="73.6" y1="0" x2="73.6" y2="184"/>
      <line x1="110.4" y1="0" x2="110.4" y2="184"/>
      <line x1="147.2" y1="0" x2="147.2" y2="184"/>
      <line x1="0" y1="36.8" x2="184" y2="36.8"/>
      <line x1="0" y1="73.6" x2="184" y2="73.6"/>
      <line x1="0" y1="110.4" x2="184" y2="110.4"/>
      <line x1="0" y1="147.2" x2="184" y2="147.2"/>
    </g>
    <line x1="92" y1="14" x2="92" y2="170" stroke="rgba(255,255,255,0.07)"/>
    <line x1="14" y1="92" x2="170" y2="92" stroke="rgba(255,255,255,0.07)"/>
    <!-- slot dots -->
    <circle cx="52" cy="58" r="6" fill="#FFB547"/>
    <circle cx="52" cy="58" r="11" fill="none" stroke="#FFB547" stroke-opacity="0.25"/>
    <circle cx="128" cy="50" r="6" fill="#3DD9EB"/>
    <circle cx="128" cy="50" r="11" fill="none" stroke="#3DD9EB" stroke-opacity="0.25"/>
    <circle cx="74" cy="132" r="5" fill="#2a2e38" stroke="rgba(255,255,255,0.18)"/>
    <circle cx="140" cy="124" r="5" fill="#2a2e38" stroke="rgba(255,255,255,0.18)"/>
    <!-- cursor -->
    <circle cx="100" cy="88" r="14" fill="none" stroke="#3DD9EB" stroke-opacity="0.4"/>
    <circle cx="100" cy="88" r="7" fill="#fff"/>
    <circle cx="100" cy="88" r="7" fill="none" stroke="#3DD9EB" stroke-opacity="0.6"/>
  </g>

  <!-- Param sliders -->
  <g transform="translate(760,280)" font-family="ui-monospace,monospace">
    <text x="0" y="0" font-size="9" fill="#5A5D65" letter-spacing="1.5">ESSENTIALS</text>
    <g transform="translate(0,14)" font-size="9" fill="#8B8E96">
      <text x="0" y="10">CFG</text>
      <rect x="44" y="6" width="120" height="3" rx="1.5" fill="#1C1F26"/>
      <rect x="44" y="6" width="72" height="3" rx="1.5" fill="url(#blend)"/>
      <text x="172" y="10" fill="#E8E9ED" text-anchor="end">1.80</text>

      <text x="0" y="32">TEMP</text>
      <rect x="44" y="28" width="120" height="3" rx="1.5" fill="#1C1F26"/>
      <rect x="44" y="28" width="94" height="3" rx="1.5" fill="url(#blend)"/>
      <text x="172" y="32" fill="#E8E9ED" text-anchor="end">0.95</text>

      <text x="0" y="54">TOP-K</text>
      <rect x="44" y="50" width="120" height="3" rx="1.5" fill="#1C1F26"/>
      <rect x="44" y="50" width="48" height="3" rx="1.5" fill="url(#blend)"/>
      <text x="172" y="54" fill="#E8E9ED" text-anchor="end">180</text>

      <text x="0" y="76">MASK</text>
      <rect x="44" y="72" width="120" height="3" rx="1.5" fill="#1C1F26"/>
      <rect x="44" y="72" width="102" height="3" rx="1.5" fill="url(#blend)"/>
      <text x="172" y="76" fill="#E8E9ED" text-anchor="end">0.85</text>
    </g>
  </g>

  <!-- Status footer in right panel -->
  <g transform="translate(760,490)" font-family="ui-monospace,monospace" font-size="9">
    <text x="0" y="0" fill="#5A5D65">BUFFER 2048</text>
    <circle cx="120" cy="-3" r="3" fill="#4ADE80"/>
    <text x="184" y="0" fill="#4ADE80" text-anchor="end">● LIVE</text>
  </g>
</svg>
